<svg xmlns="http://www.w3.org/2000/svg" version="1.1" xmlns:xlink="http://www.w3.org/1999/xlink" xmlns:svgjs="http://svgjs.dev/svgjs" width="2000" height="3200" viewBox="0 0 2000 3200"><g transform="matrix(1,0,0,1,-4.460132010871575,-3.9024390243901053)"><svg viewBox="0 0 205 328" data-background-color="#ffffff" preserveAspectRatio="xMidYMid meet" height="3200" width="2000" xmlns="http://www.w3.org/2000/svg" xmlns:xlink="http://www.w3.org/1999/xlink"><g id="tight-bounds" transform="matrix(1,0,0,1,0.4571635311143325,0.39999999999997726)"><svg viewBox="0 0 204.08567293777134 327.2" height="327.2" width="204.08567293777134"><g><svg viewBox="0 0 204.08567293777134 327.2" height="327.2" width="204.08567293777134"><g><svg viewBox="0 0 204.08567293777134 327.2" height="327.2" width="204.08567293777134"><g id="textblocktransform"><svg viewBox="0 0 204.08567293777134 327.2" height="327.2" width="204.08567293777134" id="textblock"><g><svg viewBox="0 0 204.08567293777134 327.2" height="327.2" width="204.08567293777134"><g transform="matrix(1,0,0,1,0,0)"><svg width="204.08567293777134" viewBox="0.4 -34.55 21.55 34.55" height="327.2" data-palette-color="#39cccc"><path d="M0.4-34.55L21.95-34.55 21.25-29.55 14.15-29.55 14.15 0 7.8 0 7.8-29.55 0.4-29.55 0.4-34.55Z" opacity="1" transform="matrix(1,0,0,1,0,0)" fill="#39cccc" class="wordmark-text-0" data-fill-palette-color="primary" id="text-0"></path></svg></g></svg></g></svg></g></svg></g><g></g></svg></g><defs></defs></svg><rect width="204.08567293777134" height="327.2" fill="none" stroke="none" visibility="hidden"></rect></g></svg></g></svg>